<svg viewBox="0 0 320 340" fill="none" xmlns="http://www.w3.org/2000/svg" role="img" aria-label="Quokka mascot Happify">
  <ellipse cx="160" cy="316" rx="96" ry="16" fill="#000" opacity="0.06"/>
  <ellipse cx="86" cy="120" rx="34" ry="40" fill="#C9824C"/>
  <ellipse cx="234" cy="120" rx="34" ry="40" fill="#C9824C"/>
  <ellipse cx="86" cy="122" rx="17" ry="22" fill="#E7A972"/>
  <ellipse cx="234" cy="122" rx="17" ry="22" fill="#E7A972"/>
  <path d="M52 168c0-52 44-86 108-86s108 34 108 86c0 66-48 120-108 120S52 234 52 168Z" fill="#D68F55"/>
  <path d="M52 168c0-52 44-86 108-86 12 0 23 1.4 34 4-44 8-74 42-74 96 0 42 20 78 50 98-70-8-118-58-118-126Z" fill="#000" opacity="0.05"/>
  <ellipse cx="160" cy="212" rx="66" ry="58" fill="#F3D2AE"/>
  <ellipse cx="160" cy="238" rx="46" ry="38" fill="#F8E2C8"/>
  <circle cx="126" cy="188" r="13" fill="#fff"/>
  <circle cx="194" cy="188" r="13" fill="#fff"/>
  <circle cx="128" cy="190" r="8" fill="#3C332B"/>
  <circle cx="192" cy="190" r="8" fill="#3C332B"/>
  <circle cx="131" cy="187" r="2.6" fill="#fff"/>
  <circle cx="195" cy="187" r="2.6" fill="#fff"/>
  <ellipse cx="104" cy="216" rx="15" ry="10" fill="#F2A488" opacity="0.65"/>
  <ellipse cx="216" cy="216" rx="15" ry="10" fill="#F2A488" opacity="0.65"/>
  <ellipse cx="160" cy="210" rx="9" ry="7" fill="#5A4636"/>
  <path d="M136 226c7 10 41 10 48 0" stroke="#5A4636" stroke-width="6" stroke-linecap="round"/>
</svg>
